# xmcd CD database file
#
# Track frame offsets:
#	150
#	23018
#	49101
#	64918
#	79690
#	103240
#	121930
#	146159
#	168311
#	191965
#	208278
#	227282
#
# Disc length: 3307 seconds
#
# Revision: 0
# Processed by: cddbd v1.5PL3 Copyright (c) Steve Scherf et al.
# Submitted via: NeoAudio 9.9.9
#
DISCID=a90ce90c
DTITLE=Lydia Ranger - The Family Room
DYEAR=2004
DGENRE=Country
TTITLE0=Call On His Name
TTITLE1=When I Heal
TTITLE2=A Matter Of Attitude
TTITLE3=Lift You High
TTITLE4=Home
TTITLE5=Trophies Of Your Grace
TTITLE6=Thank You
TTITLE7=Definition Of Grace
TTITLE8=Bridge Over Troubled Waters
TTITLE9=Totally Depend On You
TTITLE10=My Soul Is In Your Hands
TTITLE11=I Yield
EXTD=YEAR: 2004
EXTT0=
EXTT1=
EXTT2=
EXTT3=
EXTT4=
EXTT5=
EXTT6=
EXTT7=
EXTT8=
EXTT9=
EXTT10=
EXTT11=
PLAYORDER=
